<?xml version="1.0" standalone="no"?>
<!DOCTYPE svg PUBLIC "-//W3C//DTD SVG 20010904//EN"
 "http://www.w3.org/TR/2001/REC-SVG-20010904/DTD/svg10.dtd">
<svg version="1.0" xmlns="http://www.w3.org/2000/svg"
 width="626.000000pt" height="564.000000pt" viewBox="0 0 626.000000 564.000000"
 preserveAspectRatio="xMidYMid meet">

<g transform="translate(0.000000,564.000000) scale(0.100000,-0.100000)"
fill="#000000" stroke="none">
<path d="M6197 5513 c-31 -65 -63 -136 -73 -158 -9 -22 -26 -62 -39 -90 -42
-91 -77 -170 -85 -191 -8 -21 -134 -236 -210 -359 -24 -38 -93 -155 -155 -260
-61 -104 -158 -253 -216 -330 -97 -129 -362 -492 -419 -575 -13 -19 -29 -40
-35 -46 -108 -116 -411 -451 -554 -614 -46 -52 -102 -111 -125 -130 -22 -19
-52 -46 -66 -60 -28 -28 -58 -56 -395 -365 -228 -209 -316 -285 -329 -285 -5
0 -20 -11 -69 -54 -12 -10 -98 -76 -192 -147 -93 -71 -222 -169 -285 -218
-153 -120 -286 -212 -294 -204 -3 3 -6 1 -6 -5 0 -6 -6 -12 -13 -14 -13 -3
-253 -159 -549 -356 -77 -51 -147 -96 -156 -99 -10 -4 -19 -10 -22 -13 -3 -4
-36 -22 -75 -41 -38 -18 -110 -56 -160 -85 -119 -68 -249 -140 -305 -167 -25
-12 -47 -25 -50 -28 -6 -8 -351 -183 -440 -223 -36 -16 -105 -49 -155 -72
-155 -73 -295 -134 -305 -134 -6 0 -18 -4 -28 -10 -9 -5 -46 -23 -82 -39 -36
-16 -100 -45 -143 -65 -43 -20 -81 -36 -84 -36 -3 0 -16 -9 -30 -20 l-26 -20
3117 0 3116 0 0 2815 c0 1548 -1 2815 -3 2815 -2 0 -29 -53 -60 -117z"/>
</g>
</svg>
