<?xml version="1.0" encoding="UTF-8"?>
<svg width="386px" height="83px" viewBox="0 0 386 83" version="1.1" xmlns="http://www.w3.org/2000/svg" xmlns:xlink="http://www.w3.org/1999/xlink">
    <title>Volume + Pause / Play + Previous + Next + Random</title>
    <g id="Volume-+-Pause-/-Play-+-Previous-+-Next-+-Random" stroke="none" stroke-width="1" fill="none" fill-rule="evenodd">
        <g>
            <g id="Pause-/-Play-+-Previous-+-Next" transform="translate(90.000000, 8.000000)">
                <g id="Pause-/-Play" transform="translate(69.226230, 0.000000)">
                    <g id="Fill-1707-+-Fill-1708" transform="translate(23.388426, 16.537975)" fill="#4045F5">
                        <path d="M7.61957421,0 L0.692688565,0 C0.310324477,0 0,0.313330464 0,0.700963007 L0,32.9452613 C0,33.3328939 0.310324477,33.6462244 0.692688565,33.6462244 L7.61957421,33.6462244 C8.0019383,33.6462244 8.31226278,33.3328939 8.31226278,32.9452613 L8.31226278,0.700963007 C8.31226278,0.313330464 8.0019383,0 7.61957421,0" id="Fill-1707"></path>
                        <path d="M18.7025913,0 L11.7757056,0 C11.3933415,0 11.083017,0.313330464 11.083017,0.700963007 L11.083017,32.9452613 C11.083017,33.3328939 11.3933415,33.6462244 11.7757056,33.6462244 L18.7025913,33.6462244 C19.0849553,33.6462244 19.3952798,33.3328939 19.3952798,32.9452613 L19.3952798,0.700963007 C19.3952798,0.313330464 19.0849553,0 18.7025913,0" id="Fill-1708"></path>
                    </g>
                    <ellipse id="Oval-35" stroke="#4045F5" stroke-width="1.2" cx="33.1897382" cy="33.1807939" rx="33.1897382" ry="33.1807939"></ellipse>
                </g>
                <g id="Previous" transform="translate(0.000000, 11.194937)">
                    <ellipse id="Oval-37" stroke="#4045F5" stroke-width="1.2" cx="21.9702663" cy="21.9774337" rx="21.9702663" ry="21.9774337"></ellipse>
                    <g id="Fill-1705-+-Fill-1706" transform="translate(14.227008, 13.128608)" fill="#4045F5">
                        <path d="M15.1063832,0.0320556835 C14.9761514,-0.025929 14.8225726,-0.00404798734 14.7149581,0.0914991013 L5.23028597,8.47922062 C5.15185502,8.54851049 5.10698523,8.6480691 5.10698523,8.75236859 C5.10698523,8.85666809 5.15185502,8.95659138 5.23028597,9.02551657 L14.7149581,17.4132381 C14.78281,17.4734109 14.8692664,17.5047737 14.9564524,17.5047737 C15.0075238,17.5047737 15.0585951,17.4941978 15.1063832,17.4726815 C15.2373447,17.4136028 15.3212475,17.2837754 15.3212475,17.1400901 L15.3212475,0.364647076 C15.3212475,0.221326443 15.2373447,0.0911344177 15.1063832,0.0320556835" id="Fill-1705"></path>
                        <path d="M3.28315574,0 L0.364795082,0 C0.163428197,0 0,0.163013544 0,0.364683544 L0,17.1401266 C0,17.3417966 0.163428197,17.5048101 0.364795082,17.5048101 L3.28315574,17.5048101 C3.48452262,17.5048101 3.64795082,17.3417966 3.64795082,17.1401266 L3.64795082,0.364683544 C3.64795082,0.163013544 3.48452262,0 3.28315574,0" id="Fill-1706"></path>
                    </g>
                </g>
                <g id="Next" transform="translate(162.376230, 11.194937)">
                    <ellipse id="Oval-37" stroke="#4045F5" stroke-width="1.2" transform="translate(21.970266, 21.977434) rotate(-180.000000) translate(-21.970266, -21.977434) " cx="21.9702663" cy="21.9774337" rx="21.9702663" ry="21.9774337"></ellipse>
                    <g id="Fill-1705-+-Fill-1707" transform="translate(21.548402, 21.680443) rotate(-180.000000) translate(-21.548402, -21.680443) translate(13.548402, 12.180443)" fill="#4045F5">
                        <path d="M15.1063832,0.0330574237 C14.9761514,-0.0267392813 14.8225726,-0.00417448695 14.7149581,0.0943584482 L5.23028597,8.74419626 C5.15185502,8.81565145 5.10698523,8.91832126 5.10698523,9.02588011 C5.10698523,9.13343897 5.15185502,9.23648486 5.23028597,9.30756396 L14.7149581,17.9574018 C14.78281,18.019455 14.8692664,18.0517978 14.9564524,18.0517978 C15.0075238,18.0517978 15.0585951,18.0408915 15.1063832,18.0187028 C15.2373447,17.9577779 15.3212475,17.8238934 15.3212475,17.6757179 L15.3212475,0.376042297 C15.3212475,0.228242894 15.2373447,0.0939823683 15.1063832,0.0330574237" id="Fill-1705"></path>
                        <path d="M3.28315574,0 L0.364795082,0 C0.163428197,0 0,0.168107718 0,0.376079905 L0,17.6757555 C0,17.8837277 0.163428197,18.0518354 0.364795082,18.0518354 L3.28315574,18.0518354 C3.48452262,18.0518354 3.64795082,17.8837277 3.64795082,17.6757555 L3.64795082,0.376079905 C3.64795082,0.168107718 3.48452262,0 3.28315574,0" id="Fill-1706"></path>
                    </g>
                </g>
            </g>
            <g id="Volume" transform="translate(38.000000, 36.000000)" fill="#4045F5">
                <path d="M9.497808,0.380634947 C9.362808,0.325106526 9.208008,0.355877053 9.105408,0.457384421 L4.170888,5.30533389 L1.799928,5.30533389 C1.006128,5.30533389 0.359928,5.93984337 0.359928,6.72007074 L0.359928,8.842176 C0.359928,9.62240337 1.006128,10.2569128 1.799928,10.2569128 L4.170888,10.2569128 L9.105408,15.1048623 C9.174528,15.172416 9.266328,15.2084918 9.359928,15.2084918 C9.406368,15.2084918 9.453168,15.1996497 9.497808,15.1816118 C9.632448,15.1267907 9.719928,14.997696 9.719928,14.8548076 L9.719928,0.707439158 C9.719928,0.564550737 9.632448,0.435102316 9.497808,0.380634947" id="Fill-1612"></path>
                <path d="M14.996952,1.85581642 C14.847192,1.72742905 14.620032,1.74228379 14.488992,1.88941642 C14.358312,2.03654905 14.373432,2.26007747 14.523192,2.38846484 C16.046352,3.69674274 16.920072,5.66251958 16.920072,7.781088 C16.920072,9.89965642 16.046352,11.8654333 14.523192,13.1737112 C14.373432,13.3020985 14.358312,13.5256269 14.488992,13.6727596 C14.560272,13.7530459 14.659632,13.7937196 14.760072,13.7937196 C14.844312,13.7937196 14.928912,13.7650712 14.996952,13.7063596 C16.676712,12.2636817 17.640072,10.1037322 17.640072,7.781088 C17.640072,5.45844379 16.676712,3.29849432 14.996952,1.85581642" id="Fill-1613"></path>
                <path d="M13.189212,3.26397474 C13.036212,3.13983158 12.809052,3.16140632 12.682332,3.31172211 C12.555972,3.46239158 12.577572,3.68521263 12.730932,3.80970947 C13.963572,4.80922105 14.759892,6.36790737 14.759892,7.78087579 C14.759892,9.19101474 13.963212,10.7500547 12.730572,11.7527495 C12.577212,11.8776 12.555972,12.1000674 12.682692,12.2507368 C12.753612,12.3352674 12.856572,12.3787705 12.960252,12.3787705 C13.040892,12.3787705 13.122612,12.3522442 13.189572,12.2977768 C14.580972,11.1663411 15.479892,9.39332211 15.479892,7.78087579 C15.479892,6.1656 14.580972,4.39258105 13.189212,3.26397474" id="Fill-1614"></path>
                <path d="M11.731644,5.01927411 C11.571084,4.90468042 11.345724,4.93934147 11.228724,5.09743832 C11.111724,5.25518147 11.147364,5.47658779 11.308284,5.59118147 C11.897604,6.01241937 12.599964,6.73393516 12.599964,7.78119411 C12.599964,8.82880674 11.897604,9.55032253 11.308284,9.97085305 C11.147364,10.0854467 11.111724,10.3064994 11.228724,10.4645962 C11.299284,10.5600909 11.408724,10.6106678 11.520324,10.6106678 C11.593764,10.6106678 11.667564,10.5887394 11.731644,10.5427604 C12.755844,9.81204884 13.319964,8.83092884 13.319964,7.78119411 C13.319964,6.73181305 12.755844,5.75069305 11.731644,5.01927411" id="Fill-1615"></path>
            </g>
            <rect id="Rectangle" stroke="#4045F5" x="0.5" y="0.5" width="385" height="82" rx="36"></rect>
            <g id="Repeat-One" transform="translate(330.000000, 35.000000)" fill="#4045F5" fill-rule="nonzero">
                <path d="M4.32,12.9855491 L9.60152828,12.9855491 C14.0765711,12.9855491 16.08,11.3734408 16.08,8 L18,8 C18,12.6072914 15.0444478,14.9855491 9.60152828,14.9855491 L4.32,14.9855491 L4.32,16.5 L2.84217094e-14,14 L4.32,11.5 L4.32,12.9855491 Z M9.0699203,5.01445087 L13.68,5.01445087 L13.68,6.5 L18,4 L13.68,1.5 L13.68,3.01445087 L9.19018132,3.01445087 C9.22953343,3.25379968 9.25,3.49950973 9.25,3.75 C9.25,4.18900309 9.18713652,4.61332362 9.0699203,5.01445087 Z M0.952761673,6.16579737 C1.31997155,6.74178932 1.81463664,7.22862298 2.39702351,7.58656491 C2.07562897,8.25637456 1.92,9.05977598 1.92,10 L0,10 C0,8.47635705 0.323231507,7.19649051 0.952761673,6.16579737 Z M4.75,0 C6.82106781,0 8.5,1.67893219 8.5,3.75 C8.5,5.82106781 6.82106781,7.5 4.75,7.5 C2.67893219,7.5 1,5.82106781 1,3.75 C1,1.67893219 2.67893219,0 4.75,0 Z M5.18371094,1.70454545 C5.09825596,1.70454545 5.04007473,1.72090893 5.00916548,1.75363636 C4.97825624,1.7863638 4.91189326,1.87363565 4.81007457,2.01545455 C4.70825588,2.15727344 4.59143887,2.28545397 4.45962003,2.4 C4.32780119,2.51454603 4.15189386,2.62363585 3.93189276,2.72727273 C3.78461929,2.79636398 3.68189305,2.85272705 3.62371094,2.89636364 C3.56552883,2.94000022 3.53643821,3.00818135 3.53643821,3.10090909 C3.53643821,3.18090949 3.56598337,3.25136333 3.62507457,3.31227273 C3.68416578,3.37318212 3.75189237,3.40363636 3.82825639,3.40363636 C3.98825719,3.40363636 4.29916317,3.22636541 4.76098366,2.87181818 L4.76098366,2.87181818 L4.76098366,5.35363636 C4.76098366,5.49909164 4.79461969,5.60909054 4.86189276,5.68363636 C4.92916582,5.75818219 5.01825584,5.79545455 5.12916548,5.79545455 C5.37825764,5.79545455 5.50280185,5.6127291 5.50280185,5.24727273 L5.50280185,5.24727273 L5.50280185,2.12454545 C5.50280185,1.99363571 5.47371123,1.89090946 5.41552912,1.81636364 C5.35734701,1.74181781 5.28007506,1.70454545 5.18371094,1.70454545 Z"></path>
            </g>
        </g>
    </g>
</svg>