<?xml version="1.0" encoding="UTF-8"?>
<svg width="24px" height="24px" viewBox="0 0 24 24" version="1.1" xmlns="http://www.w3.org/2000/svg" xmlns:xlink="http://www.w3.org/1999/xlink">
    <title>Play button</title>
    <g id="Play-button" stroke="none" stroke-width="1" fill="none" fill-rule="evenodd">
        <g>
            <circle id="Oval-37" stroke="#000000" stroke-width="0.864" transform="translate(11.520000, 11.520000) rotate(-180.000000) translate(-11.520000, -11.520000) " cx="11.52" cy="11.52" r="11.52"></circle>
            <path d="M15.6826956,5.76219173 C15.5942738,5.72157995 15.4900005,5.73690515 15.4169349,5.80382519 L8.97725491,11.6784852 C8.92400371,11.727015 8.89353907,11.7967446 8.89353907,11.8697948 C8.89353907,11.9428449 8.92400371,12.01283 8.97725491,12.0611043 L15.4169349,17.9357643 C15.4630034,17.9779086 15.5217036,17.9998748 15.5808991,17.9998748 C15.6155743,17.9998748 15.6502495,17.9924676 15.6826956,17.9773978 C15.7716127,17.9360198 15.8285791,17.8450902 15.8285791,17.7444548 L15.8285791,5.99513477 C15.8285791,5.89475471 15.7716127,5.80356977 15.6826956,5.76219173" id="Fill-1705" fill="#000000" transform="translate(12.361059, 11.869870) rotate(-180.000000) translate(-12.361059, -11.869870) "></path>
        </g>
    </g>
</svg>