<?xml version="1.0" encoding="UTF-8"?>
<svg width="332px" height="67px" viewBox="0 0 332 67" version="1.1" xmlns="http://www.w3.org/2000/svg" xmlns:xlink="http://www.w3.org/1999/xlink">
    <title>Search bar</title>
    <g id="Search-bar" stroke="none" stroke-width="1" fill="none" fill-rule="evenodd">
        <g id="Search">
            <rect id="Search-Field" fill="#F5F5F5" x="0" y="0" width="332" height="67" rx="10"></rect>
            <path d="M306,27 L306,27 C307.656854,27 309,28.2724539 309,29.8421053 L309,36.4736842 C309,38.0433356 307.656854,39.3157895 306,39.3157895 L306,39.3157895 C304.343146,39.3157895 303,38.0433356 303,36.4736842 L303,29.8421053 C303,28.2724539 304.343146,27 306,27 Z M311.25,33.1578947 C310.835786,33.1578947 310.5,33.4760082 310.5,33.8684211 L310.5,36.4736842 C310.5,38.8281613 308.485281,40.7368421 306,40.7368421 C303.514719,40.7368421 301.5,38.8281613 301.5,36.4736842 L301.5,33.8684211 C301.5,33.4760082 301.164214,33.1578947 300.75,33.1578947 C300.335786,33.1578947 300,33.4760082 300,33.8684211 L300,36.4736842 C300.001481,39.3371958 302.251111,41.7525877 305.25,42.1105263 L305.25,43.5789474 L303.25,43.5789474 C302.835786,43.5789474 302.5,43.8970608 302.5,44.2894737 C302.5,44.6818865 302.835786,45 303.25,45 L308.75,45 C309.164214,45 309.5,44.6818865 309.5,44.2894737 C309.5,43.8970608 309.164214,43.5789474 308.75,43.5789474 L306.75,43.5789474 L306.75,42.1105263 C309.748889,41.7525877 311.998519,39.3371958 312,36.4736842 L312,33.8684211 C312,33.4760082 311.664214,33.1578947 311.25,33.1578947 L311.25,33.1578947 Z" id="Dictation" fill="#4B4B4B"></path>
            <path d="M33.7432225,40.5746678 L29.9101869,36.7399811 C30.597264,35.8028391 30.9653285,34.6698569 30.9601966,33.5078238 C30.9470868,30.4745319 28.4937957,28.0175753 25.4606455,28.0000557 C24.0091121,27.9934881 22.6152404,28.5677399 21.5895454,29.5948841 C20.5638505,30.6220283 19.991535,32.0167418 20.0000947,33.4683219 C20.0132045,36.5018899 22.4667195,38.9590704 25.5001458,38.97659 C26.6668669,38.9816469 27.8039438,38.6092716 28.741676,37.9150383 L28.745676,37.9120382 L32.5752117,41.7437247 C32.7822625,41.9609487 33.0907822,42.0488759 33.3812341,41.9734386 C33.6716859,41.8980012 33.8984313,41.6710527 33.9736171,41.380525 C34.0488029,41.0899973 33.9606152,40.7815407 33.7432225,40.5746678 L33.7432225,40.5746678 Z M25.4961458,37.8785365 C23.0695373,37.8645769 21.1067572,35.8990429 21.0961048,33.4723221 C21.0895554,32.3112084 21.5474454,31.1956617 22.3678469,30.374007 C23.1882484,29.5523524 24.3030691,29.092786 25.4641455,29.0976091 C27.890754,29.1115688 29.8535341,31.0771028 29.8641864,33.5038236 C29.8707359,34.6649373 29.4128458,35.780484 28.5924444,36.6021387 C27.7720429,37.4237933 26.6572222,37.8833597 25.4961458,37.8785365 Z" fill="#4B4B4B"></path>
            <text opacity="0.6" font-family="SourceSansPro-Regular, Source Sans Pro" font-size="16" font-weight="normal" letter-spacing="0.192" fill="#000000">
                <tspan x="48" y="40">Search podcasts</tspan>
            </text>
        </g>
    </g>
</svg>